<?xml version="1.0" standalone="no"?>
<svg xmlns="http://www.w3.org/2000/svg" viewBox="0 0 255 31" width="255" height="31"><path fill="#ffffff" fill-rule="nonzero" d="M12.84 13.90L12.84 13.90Q12.84 16.32 11.06 17.70Q9.29 19.08 6.53 19.08L6.53 19.08Q4.34 19.08 2.30 17.88L2.30 17.88Q1.30 17.26 0.65 16.12Q0 14.98 0 13.51L0 13.51L3.02 13.37Q3.02 14.66 4.13 15.38Q5.23 16.10 6.58 16.10L6.58 16.10Q9.58 16.10 9.58 13.99L9.58 13.99Q9.58 12.26 7.54 11.95L7.54 11.95L4.75 11.66Q2.66 11.35 1.44 10.18Q0.22 9 0.22 6.79Q0.22 4.58 1.97 3.14Q3.72 1.70 6.40 1.70Q9.07 1.70 10.70 3.06Q12.34 4.42 12.34 6.55L12.34 6.55L9.36 6.70Q8.95 4.61 6.55 4.61L6.55 4.61Q5.09 4.61 4.26 5.23Q3.43 5.86 3.43 6.71Q3.43 7.56 4.03 8.05Q4.63 8.54 5.52 8.66L5.52 8.66L8.26 8.95Q12.84 9.58 12.84 13.90ZM24.70 5.14L24.70 18.94L22.61 18.94L21.65 17.28L18.31 19.08Q15.53 19.08 14.57 17.06L14.57 17.06Q14.09 16.08 13.91 14.94Q13.73 13.80 13.73 12.56Q13.73 11.33 13.75 10.74Q13.78 10.15 13.87 9.37Q13.97 8.59 14.15 8.06Q14.33 7.54 14.66 6.97Q15 6.41 15.48 6.07L15.48 6.07Q16.56 5.33 18.29 5.33L18.29 5.33L21.58 5.33L24.70 5.14ZM19.20 15.79L21.58 14.57L21.58 8.14L19.20 8.14Q17.88 8.14 17.36 9.14Q16.85 10.15 16.85 12.16Q16.85 14.16 17.34 14.98Q17.83 15.79 19.20 15.79L19.20 15.79ZM35.35 5.28L35.35 5.28L34.49 8.35Q34.13 8.21 33.67 8.21L33.67 8.21Q32.47 8.21 30.72 9.24L30.72 9.24L30.72 18.94L27.60 18.94L27.60 5.23L29.93 5.23L30.65 6.43L33.96 5.06Q34.20 5.04 34.61 5.04Q35.02 5.04 35.35 5.28ZM55.10 9.74L55.10 18.94L51.98 18.94L51.98 10.42Q51.98 9.14 51.68 8.64Q51.38 8.14 50.64 8.14L50.64 8.14L47.83 9.31L47.83 18.94L44.71 18.94L44.71 10.42Q44.71 8.14 43.13 8.14L43.13 8.14L40.56 9.31L40.56 18.94L37.44 18.94L37.44 5.23L39.77 5.23L40.49 6.86L44.09 5.09Q45.96 5.09 46.92 6.91L46.92 6.91L51.38 5.09Q53.26 5.09 54.18 6.35Q55.10 7.61 55.10 9.74L55.10 9.74ZM60.05 0Q61.18 0 61.51 0.35Q61.85 0.70 61.85 1.81Q61.85 2.93 61.50 3.28Q61.15 3.62 60.04 3.62Q58.92 3.62 58.57 3.26Q58.22 2.90 58.22 1.80Q58.22 0.70 58.57 0.35Q58.92 0 60.05 0ZM61.58 5.74L61.58 18.94L58.46 18.94L58.46 5.74L61.58 5.74ZM75.34 12.82L75.34 12.82L67.34 12.82Q67.34 14.69 67.93 15.55Q68.52 16.42 70.30 16.42L70.30 16.42Q71.45 16.42 72 15.68Q72.55 14.95 72.55 14.28L72.55 14.28L75.36 14.28Q75.36 16.85 73.98 18.05Q72.60 19.25 70.33 19.25Q68.06 19.25 66.82 18.60L66.82 18.60Q64.25 17.28 64.25 11.59L64.25 11.59Q64.25 8.21 65.71 6.64Q67.18 5.06 70.18 5.06L70.18 5.06Q75.38 5.06 75.38 10.85L75.38 10.85Q75.38 11.47 75.34 12.82ZM67.42 10.68L67.42 10.68L72.55 10.68Q72.55 9.10 71.95 8.38Q71.35 7.66 70.12 7.66Q68.88 7.66 68.15 8.39Q67.42 9.12 67.42 10.68ZM88.85 9.74L88.85 18.94L85.73 18.94L85.73 10.18Q85.73 9 85.25 8.57Q84.77 8.14 83.90 8.14L83.90 8.14L81.10 9.31L81.10 18.94L77.98 18.94L77.98 5.23L80.30 5.23L81.02 6.86L84.86 5.09Q86.47 5.09 87.66 6.28Q88.85 7.46 88.85 9.74L88.85 9.74ZM97.82 16.30L97.82 18.94L95.88 18.94Q94.10 18.94 93.18 17.88Q92.26 16.82 92.26 15.36L92.26 15.36L92.26 8.16L90.94 8.16L90.94 5.78L92.26 5.78L92.26 3.10L95.38 3.10L95.38 5.78L97.58 5.78L97.58 8.16L95.38 8.16L95.38 15.17Q95.38 16.30 96.46 16.30L96.46 16.30L97.82 16.30ZM107.83 12.74L107.83 12.74L107.83 11.50Q107.83 9.72 107.32 8.78Q106.80 7.85 105.17 7.85L105.17 7.85Q102.53 7.85 102.53 11.40L102.53 11.40L102.53 12.65Q102.53 16.46 105.17 16.46L105.17 16.46Q106.87 16.46 107.40 15.19L107.40 15.19Q107.83 14.18 107.83 12.74ZM110.95 12.02L110.95 12.02Q110.95 16.46 109.27 17.98L109.27 17.98Q107.86 19.27 105.17 19.27L105.17 19.27Q101.74 19.27 100.54 17.26L100.54 17.26Q99.41 15.41 99.41 12.02L99.41 12.02Q99.41 8.86 100.54 7.06L100.54 7.06Q101.78 5.04 105.08 5.04Q108.38 5.04 109.67 6.80Q110.95 8.57 110.95 12.02ZM126.07 10.63L126.07 13.54L118.68 13.54L118.68 10.63L126.07 10.63ZM146.57 13.90L146.57 13.90Q146.57 16.32 144.79 17.70Q143.02 19.08 140.26 19.08L140.26 19.08Q138.07 19.08 136.03 17.88L136.03 17.88Q135.02 17.26 134.38 16.12Q133.73 14.98 133.73 13.51L133.73 13.51L136.75 13.37Q136.75 14.66 137.86 15.38Q138.96 16.10 140.30 16.10L140.30 16.10Q143.30 16.10 143.30 13.99L143.30 13.99Q143.30 12.26 141.26 11.95L141.26 11.95L138.48 11.66Q136.39 11.35 135.17 10.18Q133.94 9 133.94 6.79Q133.94 4.58 135.70 3.14Q137.45 1.70 140.12 1.70Q142.80 1.70 144.43 3.06Q146.06 4.42 146.06 6.55L146.06 6.55L143.09 6.70Q142.68 4.61 140.28 4.61L140.28 4.61Q138.82 4.61 137.99 5.23Q137.16 5.86 137.16 6.71Q137.16 7.56 137.76 8.05Q138.36 8.54 139.25 8.66L139.25 8.66L141.98 8.95Q146.57 9.58 146.57 13.90ZM150.58 0Q151.70 0 152.04 0.35Q152.38 0.70 152.38 1.81Q152.38 2.93 152.03 3.28Q151.68 3.62 150.56 3.62Q149.45 3.62 149.10 3.26Q148.75 2.90 148.75 1.80Q148.75 0.70 149.10 0.35Q149.45 0 150.58 0ZM152.11 5.74L152.11 18.94L148.99 18.94L148.99 5.74L152.11 5.74ZM161.45 16.30L161.45 18.94L159.50 18.94Q157.73 18.94 156.80 17.88Q155.88 16.82 155.88 15.36L155.88 15.36L155.88 8.16L154.56 8.16L154.56 5.78L155.88 5.78L155.88 3.10L159.00 3.10L159.00 5.78L161.21 5.78L161.21 8.16L159.00 8.16L159.00 15.17Q159.00 16.30 160.08 16.30L160.08 16.30L161.45 16.30ZM165.62 0Q166.75 0 167.09 0.35Q167.42 0.70 167.42 1.81Q167.42 2.93 167.08 3.28Q166.73 3.62 165.61 3.62Q164.50 3.62 164.15 3.26Q163.80 2.90 163.80 1.80Q163.80 0.70 164.15 0.35Q164.50 0 165.62 0ZM167.16 5.74L167.16 18.94L164.04 18.94L164.04 5.74L167.16 5.74ZM178.06 12.74L178.06 12.74L178.06 11.50Q178.06 9.72 177.54 8.78Q177.02 7.85 175.39 7.85L175.39 7.85Q172.75 7.85 172.75 11.40L172.75 11.40L172.75 12.65Q172.75 16.46 175.39 16.46L175.39 16.46Q177.10 16.46 177.62 15.19L177.62 15.19Q178.06 14.18 178.06 12.74ZM181.18 12.02L181.18 12.02Q181.18 16.46 179.50 17.98L179.50 17.98Q178.08 19.27 175.39 19.27L175.39 19.27Q171.96 19.27 170.76 17.26L170.76 17.26Q169.63 15.41 169.63 12.02L169.63 12.02Q169.63 8.86 170.76 7.06L170.76 7.06Q172.01 5.04 175.31 5.04Q178.61 5.04 179.89 6.80Q181.18 8.57 181.18 12.02ZM202.01 9.60L202.01 9.60L202.01 10.90Q202.01 15.19 200.39 17.14Q198.77 19.08 195.19 19.08Q191.62 19.08 190.02 17.14Q188.42 15.19 188.42 10.82L188.42 10.82L188.42 9.58Q188.42 5.59 190.04 3.65Q191.66 1.70 195.18 1.70Q198.70 1.70 200.35 3.67Q202.01 5.64 202.01 9.60ZM198.67 10.82L198.67 10.82L198.67 9.94Q198.67 7.63 198.10 6.26L198.10 6.26Q197.42 4.68 195.22 4.68L195.22 4.68Q192.98 4.68 192.31 6.26L192.31 6.26Q191.76 7.56 191.76 9.94L191.76 9.94L191.76 10.82Q191.76 13.92 192.62 15L192.62 15Q192.96 15.46 193.62 15.78Q194.28 16.10 195.20 16.10Q196.13 16.10 196.78 15.79Q197.42 15.48 197.78 15.02Q198.14 14.57 198.34 13.82L198.34 13.82Q198.67 12.65 198.67 10.82ZM210.50 5.76L210.50 8.14L207.96 8.14L207.96 18.94L204.84 18.94L204.84 8.14L203.54 8.14L203.54 5.76L204.84 5.76L204.84 4.44Q204.84 2.98 205.78 1.92Q206.71 0.86 208.49 0.86L208.49 0.86L210.50 0.86L210.50 3.50L209.04 3.50Q207.96 3.50 207.96 4.63L207.96 4.63L207.96 5.76L210.50 5.76ZM214.49 0Q215.62 0 215.95 0.35Q216.29 0.70 216.29 1.81Q216.29 2.93 215.94 3.28Q215.59 3.62 214.48 3.62Q213.36 3.62 213.01 3.26Q212.66 2.90 212.66 1.80Q212.66 0.70 213.01 0.35Q213.36 0 214.49 0ZM216.02 5.74L216.02 18.94L212.90 18.94L212.90 5.74L216.02 5.74ZM226.51 13.92L226.51 13.92L229.34 13.90Q229.32 14.09 229.30 14.59Q229.27 15.10 229.26 15.28Q229.25 15.46 229.20 15.84Q229.15 16.22 229.09 16.40Q229.03 16.58 228.94 16.87L228.94 16.87Q228.50 18.12 226.58 18.84L226.58 18.84Q225.36 19.27 224.03 19.27Q222.70 19.27 221.62 18.84Q220.54 18.41 219.91 17.74L219.91 17.74Q218.50 16.25 218.50 12.16Q218.50 8.06 219.91 6.58L219.91 6.58Q220.54 5.90 221.62 5.47Q222.70 5.04 224.02 5.04L224.02 5.04Q226.61 5.04 227.95 6.34Q229.30 7.63 229.30 9.94L229.30 9.94L226.46 9.94Q226.46 8.88 225.94 8.36Q225.41 7.85 223.98 7.85Q222.55 7.85 222.08 8.74Q221.62 9.62 221.62 11.40L221.62 11.40L221.62 12.65Q221.62 15.50 222.72 16.15L222.72 16.15Q223.22 16.46 224.04 16.46Q224.86 16.46 225.37 16.31Q225.89 16.15 226.12 15.77Q226.34 15.38 226.42 15.01Q226.49 14.64 226.51 13.92ZM233.54 0Q234.67 0 235.01 0.35Q235.34 0.70 235.34 1.81Q235.34 2.93 235.00 3.28Q234.65 3.62 233.53 3.62Q232.42 3.62 232.07 3.26Q231.72 2.90 231.72 1.80Q231.72 0.70 232.07 0.35Q232.42 0 233.54 0ZM235.08 5.74L235.08 18.94L231.96 18.94L231.96 5.74L235.08 5.74ZM247.99 5.14L247.99 18.94L245.90 18.94L244.94 17.28L241.61 19.08Q238.82 19.08 237.86 17.06L237.86 17.06Q237.38 16.08 237.20 14.94Q237.02 13.80 237.02 12.56Q237.02 11.33 237.05 10.74Q237.07 10.15 237.17 9.37Q237.26 8.59 237.44 8.06Q237.62 7.54 237.96 6.97Q238.30 6.41 238.78 6.07L238.78 6.07Q239.86 5.33 241.58 5.33L241.58 5.33L244.87 5.33L247.99 5.14ZM242.50 15.79L244.87 14.57L244.87 8.14L242.50 8.14Q241.18 8.14 240.66 9.14Q240.14 10.15 240.14 12.16Q240.14 14.16 240.64 14.98Q241.13 15.79 242.50 15.79L242.50 15.79ZM254.38 0.89L254.38 18.94L251.26 18.96L251.26 0.89L254.38 0.89Z"></path><line x1="76.3128" y1="29.272" x2="178.0632" y2="29.272" stroke="#ffffff" stroke-linecap="round"></line></svg>